<?xml version="1.0" encoding="UTF-8"?>
<svg id="Layer_1" xmlns="http://www.w3.org/2000/svg" version="1.1" xmlns:xlink="http://www.w3.org/1999/xlink" viewBox="0 0 64 64">
  <!-- Generator: Adobe Illustrator 29.2.0, SVG Export Plug-In . SVG Version: 2.1.0 Build 108)  -->
  <defs>
    <style>
      .st0 {
        fill: #fff;
      }
    </style>
  </defs>
  <path class="st0" d="M59,0H5C2.2,0,0,2.2,0,5v54c0,2.8,2.2,5,5,5h54c2.8,0,5-2.2,5-5V5c0-2.8-2.2-5-5-5ZM38.3,19.6h10.8v3.1h-10.8v-3.1ZM23.7,45.8h-13v-27.6h12.6c5,0,8.5,1.7,8.5,6.8s-1,4.5-3.6,5.8c3.3,1,4.9,3.6,4.9,7,0,5.4-4.3,8-9.4,8ZM53.2,36.6h-14c.1,3.2,1.5,5.1,4.8,5.1s3.9-1.4,4.2-2.6h4.7c-1.3,4.3-4.1,6.7-9.1,6.7s-9.9-4.5-9.9-10.5c0-14.1,20.3-14.6,19.3,1.3Z"/>
  <path class="st0" d="M26.2,26.1c0-2.4-1.7-3.2-4-3.2h-5.5v6.5h6c2.1,0,3.6-1,3.6-3.3Z"/>
  <path class="st0" d="M23,33.5h-6.4v7.6h6.3c2.6,0,4.3-1,4.3-3.6s-1.6-3.9-4.2-3.9Z"/>
  <path class="st0" d="M43.7,28.9c-2.4,0-4.2,1.5-4.4,4.3h8.7c-.6-3.3-2-4.3-4.2-4.3Z"/>
</svg>