<?xml version="1.0" encoding="UTF-8"?>
<svg id="Layer_1" xmlns="http://www.w3.org/2000/svg" version="1.1" xmlns:xlink="http://www.w3.org/1999/xlink" viewBox="0 0 64 64">
  <!-- Generator: Adobe Illustrator 29.2.0, SVG Export Plug-In . SVG Version: 2.1.0 Build 108)  -->
  <defs>
    <style>
      .st0 {
        fill: #fff;
      }
    </style>
  </defs>
  <path class="st0" d="M34.4,29.1h0c0,0,0,0,0,0h0Z"/>
  <path class="st0" d="M59,0H5C2.2,0,0,2.2,0,5v54c0,2.8,2.2,5,5,5h54c2.8,0,5-2.2,5-5V5c0-2.8-2.2-5-5-5ZM21.1,51.1h-8.6v-25.8h8.6v25.8ZM16.8,21.8h0s0,0,0,0c-2.9,0-4.7-2-4.7-4.5s1.9-4.5,4.8-4.5c2.9,0,4.7,1.9,4.8,4.5,0,2.5-1.9,4.5-4.8,4.5ZM52,51.1h-8.6v-13.8c0-3.5-1.2-5.8-4.3-5.8s-3.8,1.6-4.4,3.1c-.2.5-.3,1.3-.3,2.1v14.4h-8.6s.1-23.4,0-25.8h8.6v3.7c1.1-1.8,3.2-4.3,7.7-4.3s9.9,3.7,9.9,11.6v14.8Z"/>
</svg>